<svg xmlns="http://www.w3.org/2000/svg" version="1.1" xmlns:xlink="http://www.w3.org/1999/xlink" xmlns:svgjs="http://svgjs.dev/svgjs" width="1000" height="1000"><svg id="SvgjsSvg1008" xmlns="http://www.w3.org/2000/svg" viewBox="0 0 1000 1000"><g id="SvgjsG1007"><path d="M230.79,506.43c-15.23-19.73-26.86,2.41-41.28,13C207.56,536.67,228.82,531.29,230.79,506.43Z"></path><path d="M744.93,559.54c-6.7-23.62-26-7-43.45-2C711.76,579.77,733.63,582,744.93,559.54Z"></path><path d="M783.86,380.48c11.85,19.77,37.53,4.88,35.51-16.82C812.77,340.53,782.68,360.79,783.86,380.48Z"></path><path d="M549.69,209c34.26-15.65,5.69,8.09,34.58,26.47C613.12,210,544.16,163.54,549.69,209Z"></path><path d="M202.65,367.86c42.1-32.22-57.73-57.73-14.38-4.89C190.13,366,199.4,369.15,202.65,367.86Z"></path><path d="M179.1,429c27.07-16.6,7.59-32.1-13.38-40.75C150.09,393.77,164.51,422.6,179.1,429Z"></path><path d="M214.72,330.4c24.47-15.29,3.8-32-1.12-54.11C196,297.51,197.29,314.39,214.72,330.4Z"></path><path d="M786.34,303.31c-21.68,23.79-22.5,29.83-5.35,46.76C800.2,335.39,801.52,321.4,786.34,303.31Z"></path><path d="M775.9,518c-25.27,31.5,55.2,41.82,20.67,6C791.67,518.05,784.71,509.66,775.9,518Z"></path><path d="M277.88,533.38c-33.19-24-44.06,52.41-6.33,19.62C277.83,548.36,286.66,541.75,277.88,533.38Z"></path><path d="M807.55,437.9c15.73,27.27,28.58-10.15,30.32-24C814.26,414,803.3,423.53,807.55,437.9Z"></path><path d="M313.21,239c-27.08,11.83-32,25.74-14.1,41.65C317.78,269,315.1,254.4,313.21,239Z"></path><path d="M274.86,289.65c11.27-14-5.11-32.31-31.1-31.63C253,270.41,253.47,293.88,274.86,289.65Z"></path><path d="M276.62,253.2c11-14.11,5.54-31.81-12.78-41.17C254.72,233.66,258.08,244.46,276.62,253.2Z"></path><path d="M667.33,182c-26.42,14.4-27.06,15.8-17.09,37.09C668.2,216.39,675.39,200.79,667.33,182Z"></path><path d="M705.64,295c9-20.68,3.31-32.45-18.46-41C686.29,269.54,683,285.24,705.64,295Z"></path><path d="M349.38,209.93c9.41-22.72,5.25-30-22.93-41.48C328.88,184.5,328.94,200,349.38,209.93Z"></path><path d="M407.76,188.05c17.39-7.78,2-28.29,3.7-45.3C393.05,157.5,389,181.42,407.76,188.05Z"></path><path d="M593.47,153.81c-13,14.18-15.74,28.17-1.27,43.84C607.77,184.78,607.92,173.88,593.47,153.81Z"></path><path d="M720.38,298.28c16.07,20.2,35-5.83,28-22.26C731.36,279.07,718.91,283.91,720.38,298.28Z"></path><path d="M418.34,228.94c12.4-7.19,24.37-38.57,6.53-41.6C420.32,201.6,399.51,216.61,418.34,228.94Z"></path><path d="M725.36,268c19.84-8.41,9.85-23.78,11.83-40.38C715,237.11,711.71,255.19,725.36,268Z"></path><path d="M457.67,291.64c33,5-10-18.54,4.13-43.57C440.76,268.08,440.29,279.79,457.67,291.64Z"></path><path d="M193.42,443.43c-18.61-12.06-21.88-11.73-42.26,3.74C167.65,459.49,174.78,459,193.42,443.43Z"></path><path d="M528,161.39c3.07-8.78,3.27-18.21,4.58-27.39C513.52,125.54,496.07,184.16,528,161.39Z"></path><path d="M359.75,251.66c3.69-21.94,2.87-22.85-24-27.89C334.35,240.66,341.15,249,359.75,251.66Z"></path><path d="M703.09,241.82c12.34-13.68,10.55-20.89-10.74-36.93C694.5,217.39,681.25,232.82,703.09,241.82Z"></path><path d="M667.26,236.46c-26.29-1.1-31,3.81-24.68,24.12C661.82,260.5,664.71,249.34,667.26,236.46Z"></path><path d="M209.46,441.91c11.69-12.53,9.06-24.6,1.9-37.62C194.86,419.14,194.2,428.71,209.46,441.91Z"></path><path d="M230.65,358.78c13.38-4.49,25.62-26.18,11.93-32.55C232.45,336.73,219,344.88,230.65,358.78Z"></path><path d="M377.85,215.65c3.18-12.71,5.71-22.78,9.15-36.5C358.4,194.81,356.24,202.4,377.85,215.65Z"></path><path d="M466.29,193.29c20.11-8.94.11-25.3-18.45-25.23C446.12,181.9,452.69,189.76,466.29,193.29Z"></path><path d="M785.22,423.89c-2.61,12.47-9.31,24.49,5.63,33.7C803.23,449,798.67,426.43,785.22,423.89Z"></path><path d="M306.81,216.46c-1.16-8.64,7-25.78-7.25-27C291,200,287.89,239.59,306.81,216.46Z"></path><path d="M673.57,339.48l15.88-26.69C660.88,314.9,656.28,323.58,673.57,339.48Z"></path><path d="M310.07,296.37,328.93,329C343.54,308.22,338.51,300.52,310.07,296.37Z"></path><path d="M545.32,140.13,564.85,174C577.12,155.94,573.62,150.29,545.32,140.13Z"></path><path d="M667.29,310.27c1.73-12.92,3.17-23.71,5-37.26C648.42,288.24,647.21,296.47,667.29,310.27Z"></path><path d="M763.25,382.55c14.77-18.6,9.33-29.46-14.88-35.43C753.28,358.81,757.47,368.8,763.25,382.55Z"></path><path d="M498.54,193.28c-4-9.64,6-35.14-9.91-33.61C482.24,170.38,476,195.54,498.54,193.28Z"></path><path d="M611.73,189.77c5.11,12.9,9.1,23,13.1,33.09C638.92,209.05,634.43,199.49,611.73,189.77Z"></path><path d="M440.2,133c-1.9,8.82-22.4,24.43-9,28.83C447.63,157.35,450.1,152.5,440.2,133Z"></path><path d="M460.9,126l11.77,32.48C487.5,143,484.18,135.11,460.9,126Z"></path><path d="M678.82,545.15s-8.26-36.42-61.3-12c-74.18,34.14-85.83,187.89-4,179.89,125.56-51.93,105,1.15,186.8-26.78,118.46-27.61,42.22-4.2-11.19,11.68-1.27.65-18.6,9.44-12.88,13.63,11.21,4.9,46.85,4.88,41.88,13.26-40.85,6.26-69.57-28.69-111-18,29.41,44.06,74.84,48.82,128.2,35.73,0,0,.35,6.23.36,6.23-45.93,13.48-112.07.18-40.38,43.18-34.84-2.4-24,3.16-25.42,26.52-20.33-28.73-31.86-103.58-99-90.35-29.13,7.65,14,21.3,22.75,29-5.23,32.87,85.16,97.8,8.63,51.86,0,0-50-59.43-104.23-60.74-20-.48-27.73,3.12-27.73,3.12-7.22,12.14,21.78,13.39,30.78,20.55,27.12,12.5,54.78,27.65,71.89,48.9-38.17-16.28-56.61-4.66-27.66,33.21-19.51-3.5-24.51-14.37-25.38-27.79-1.91-29.42-2.27-28.69-36.66-39.22-49.17-19-68.38-37.29-24.24,2,8.1,7.21,12.91,22.48,12.91,22.48s-29.45-8.22-44.32-22.84C548.86,809.6,551,856.12,551,864l-18.57-31.25c-7.41-20.22-11.49-31.81-28.24-49.35-26,18.27-1.2,49.43-25.68,66.73,16.05-59.71-38.78-30.42-26.59,10.84,1.34,41.35-22.32-28.7-22.32-28.7-6.21-46,36.28-24.16,44.94-66.46-28.68,14.36-84.76,12.32-90.16,45-2.81,20.63-22.5,59.35-14.23,12.42,3-20.32-10.1-17.79-27.8-14.06-16-7.7,63-61.77,93.56-55.34C306,726.44,322.7,790.4,337.39,834.16c0,0-25-43.24-41.88-28.85-12.7,10.82-14.35,11.54-14.35,11.54s-2.79-6.85,2-21.16c5-14.8,49.31-43.13,19.36-49.56,10.73-4.14,23.68-8,35.05-13.89,8.24-4.25,5.62-9.54-3-13-51.15-13.71-86.63,33.39-96.21,73.31-16.28-39-55.4,10.4,8.28-46.5-26.93-5.68-65.42-3.08-78.41-17.48C214,733.89,255.63,741.53,286,706.85c28.25-40.84-86.78,26.36-117.69-1.92,59.11-3.51,75.8-9.16,13.85-35.12-113-21.09,17.29-19.41,53.84,8.43,57.34-6.56,99.64,5.26,152.13,27.26,96.59,17.4,80.51-195.37-38.15-189.26-29.32,1.5-59.1,17.69-59.1,17.69s.15-5.8,5.21-18.06c2.36-5.71-3.89-12.22-23.89-10.42-46.68,10.71-38.51-49-74.63-23.19-6.31.76-13.59-3.73-20.44-5.91-4.88-13.81,36.59-10.8,30.62-28.22,12.13,10.17,17.77-6.82,26.77-12.32,14.22,5.68-6.41,17.87-10.16,28.59,63.12,66.65,4.77-65.32-2.88-94.25,16,23.24,62,73.3,32.58,7l6.18-3c23.13,28.35,27.79-1.37.78-13.7,45.5-1.05-20.32-22.71-1.45-34.94,14.29,6.52,18.34,17.8,23.95,29.25,4.32,7.25,21.15,11,8.33,22.58,16.8,7.65,6.23,12.88-7.42,16.41-7.3,12.06-14.15,24.3-21.74,37.55,26.71-.56,25.2,5.11,5.26,17.71,9.64,45.76,97.32,58.71,47.14-8.16-25.1,17.8-31.34-25.15-2.5-11.1V409.08c22.19,1-11.31,43.7,26.95,20.05,9.81,11.65-24,22.66.5,34.24,12.26-19.91,31.86-34.57,17.21-2.36-14.53,45.63,75.93,38.15,96.57,75,1.91-75.42-89.36-91.95-128.48-146-14.8-23.79-25.52-55.32-49.25-72.92-31.68-22-1.21-6.24,11-23.26,11,8-7.57,31.5,23.61,15.58-19.37,23.89-10.31,31.86,14.27,52.93,11-25.15,20.32-46.59,30.66-70.33,21.66,17.17-16.18,21.49-7.12,30.61,52.19-3.76,24.88,20.16-.93,10.95-8.77,21.58-8.2,28.26,18.54,14.86,5.3,18-5.19,27.85-27.94,24,9,18.12,14.1,39.14,28.19,10.2,13.82,2.16,1.06,14.3.57,23.71,50.61,32.38,52.62,8.15,57.11-33.18-22.16-3.79-27.2-9.76-25.94-31.94,58.8,35.44-29.41-31.19-25.32-54.7-.62-6.1-10.75-11.56-16.37-17.14,24.49-22.18,18.45,21.15,40.14-2.49,4.79,31.37-29.05,25.59,28.26,60.29-11-37.31-20.67-70.24-30.82-104.7,13,7.35,19.39,24.52,42,9.94,2,7.72-6.76,16.93-13.51,20.63-21.34,2.87,7.86,84.85,21.15,40.36-7.27,118.16-8.69,130.19,57.51,235.67,66.79-92.21-94.4-90.76-25.78-106.31,1.58-33.14-6.84-15-23.34-31,35.47-28.56,30.24,54.42,57.87,47.76-16.5-47-44.33-95.25-20.11-144.25,2.44-8.35-16.59-28.61-1.62-30.51,33.77,63.92,1.78,28.3,3.27,73.39,29-26.45,31.82-70,13.09-102.64-28,15.9-9.89-7.27-6.34-23.15-15.87,3.95-27.89,16.47-35.74,8.26,30.85-43.47,25.73,5.76,56.72-28.87-9.43,33.74-5.14,47,15.62,77.66,17.12-26.89,5.21-30.42-18.07-49.33,84.49-1.6,5.84,25.64,47.77,37.56-.18,2,0,3.81-.41,3.93-29.86,4.14-69.16,90.66-33.37,78.76-7.06,10.46-6.66,26.12-25.26,22.58,49.45,141,68.16,81.74,55.63-25.83-3.76-12.94,5.36-37.76-19.73-29.68,13.24-15.37-7.86-15.36,8.29-28.07,19.88,5.87,16.86,14.78,15,31.12,16.12,2.61,15.47-25.95,23.58-35.58,7.45-17.34-25.69-16.2-21.56-34.09,22.49,12.54,25.79-13.25,41.4-10.78,1.73,1.55-34.45,101.43-24.34,99.23,33.35-21.44,37.26-22.54,14.41-52.37,39.21,3.73,24.54,23.76,23.93-34.64,25.2,30,10,37.93.33,70.75-2.52,14.26-38.71,28.75-32,42.14,29.65-14.92,16.44,30.64-10.82,21,1.1,8.32,2.15,16.19,3.4,25.67,32.79-19.17,9.39,13.74-1.84,26.07,41.11,1,77.56-19.27,80.45-41.79-19.69-.73-30.16-9-30.37-29.1,50.46,22.92,23.17-18.24-11.61-16.11,7.92-23.17,51.5,12,13.74-35.12,21.75.75,31.3,48.11,43,66.57,25.53-13.88,28.23-20.59,17.55-46.13,22.77,13.06,14.76,1.88,16.09-12.61,63.29,9.75,2.17,11.34-1.37,42.18-19.43,30.84-37.65,65.36-77.9,81.77-37.26,6.86-109.86,112.73-64.59,90.87,31.41-19.74,103.36-26.49,81.78-64.06,50.23,36.1-9.47-53.68,33.85-9,2.79-1.82-7-56.3,6.54-48.71-11.77,50.29,43.84,27.08-7,52.66-34.25,39.7,4.27,46.9,43.86,22.74,23.53-13.94-3.18-19.36-10.74-36.75,47.48,12.9,1.66-40.83-19.33-49.81h17.26c-18.67-19.76,12.32-29.7,25.18-55.53,14.26,12.19-33.88,35.87.38,35.33-8.46,8.56-26.43,24.45-10.06,30.77,6.38-9.19,6.57-25.19,20-12.14-40.07,46.95,13.19,32.83,30.17-4.18-3.2,26.05-63.49,140.4-9.82,100.6,58.36-67.76,106-.78,48.42-17.84C803,462.2,795.27,467.79,786.39,480c45.59,4.28,28.3,38.13-2.18,9.91-15.66,20.72-28.25,35.9-63.77,28.43,0,0-27.94-5.37-30,2.32C683.46,547.24,678.82,545.15,678.82,545.15Z"></path></g></svg><style>@media (prefers-color-scheme: light) { :root { filter: none; } }
@media (prefers-color-scheme: dark) { :root { filter: invert(100%); } }
</style></svg>