<?xml version="1.0" encoding="utf-8"?><svg xmlns="http://www.w3.org/2000/svg" viewBox="0 0 18 16"><path d="M9 1l-2.87.05a6.53 6.53 0 0 0-1.71.3 3.76 3.76 0 0 0-1.26.81 3.33 3.33 0 0 0-.81 1.26 5 5 0 0 0-.3 1.71L2 8v2.87a6.53 6.53 0 0 0 .3 1.71 3.76 3.76 0 0 0 .81 1.26 2.82 2.82 0 0 0 1.26.81 5 5 0 0 0 1.71.3L9 15h2.87a6.53 6.53 0 0 0 1.71-.3 3.76 3.76 0 0 0 1.26-.81 3.33 3.33 0 0 0 .81-1.26 5 5 0 0 0 .3-1.71L16 8V5.13a6.53 6.53 0 0 0-.3-1.71 3.76 3.76 0 0 0-.81-1.26 3.33 3.33 0 0 0-1.26-.81 5 5 0 0 0-1.71-.3L9 1zm-.6 1.26H9l2.82.05a4.14 4.14 0 0 1 1.31.25 4.76 4.76 0 0 1 .81.5 2.06 2.06 0 0 1 .5.81 4.14 4.14 0 0 1 .25 1.31L14.74 8l-.05 2.82a4.14 4.14 0 0 1-.25 1.31 4.76 4.76 0 0 1-.5.81 1.76 1.76 0 0 1-.81.5 4.14 4.14 0 0 1-1.31.25L9 13.74c-1.86 0-2.12 0-2.82-.05a4.14 4.14 0 0 1-1.31-.25 4.76 4.76 0 0 1-.81-.5 1.76 1.76 0 0 1-.5-.81 4.14 4.14 0 0 1-.25-1.31L3.26 8l.05-2.82a4.14 4.14 0 0 1 .25-1.31 4.76 4.76 0 0 1 .5-.81 2.06 2.06 0 0 1 .81-.5 4.14 4.14 0 0 1 1.31-.25c.65-.05.91-.05 2.22-.05zm4.33 1.16a.86.86 0 1 0 0 1.71.82.82 0 0 0 .85-.86.81.81 0 0 0-.85-.85zM9 4.42A3.58 3.58 0 1 0 12.58 8 3.6 3.6 0 0 0 9 4.42zm0 1.26A2.32 2.32 0 1 1 6.68 8 2.28 2.28 0 0 1 9 5.68z" fill="#fff"/></svg>