<?xml version="1.0" encoding="utf-8"?><svg xmlns="http://www.w3.org/2000/svg" width="735.001" height="135.001" viewBox="0 0 194.469 35.719" fill="#008cff"><path d="M31.965 0c1.313 2.095 1.905 4.252 1.905 6.978 0 8.693-7.682 19.985-13.917 27.915H5.711L0 1.903 12.47.76l3.02 23.474c2.822-4.44 6.303-11.418 6.303-16.175 0-2.604-.462-4.378-1.184-5.838zm16.161 14.529c2.295 0 8.072-1.014 8.072-4.186 0-1.523-1.115-2.283-2.429-2.283-2.298 0-5.314 2.662-5.643 6.468zm-.263 6.281c0 3.873 2.229 5.392 5.185 5.392 3.218 0 6.3-.76 10.305-2.726l-1.509 9.895c-2.822 1.332-7.22 2.22-11.488 2.22-10.828 0-14.703-6.343-14.703-14.273 0-10.278 6.304-21.191 19.3-21.191C62.108.127 66.109 4 66.109 9.392c.001 8.692-11.549 11.355-18.245 11.418zm54.232-13.195c0 1.269-.199 3.109-.398 4.311l-3.741 22.84H85.814l3.413-20.937.264-2.345c0-1.523-.985-1.903-2.169-1.903-1.573 0-3.15.697-4.2 1.206l-3.871 23.979H67.04L72.618.571h10.568L83.32 3.3C85.814 1.715 89.097 0 93.754 0c6.172-.001 8.34 3.046 8.34 7.615zm36.047-3.744C141.62 1.463 144.903.128 149.43.128c6.234 0 8.403 3.046 8.403 7.616 0 1.269-.199 3.109-.397 4.311l-3.738 22.84h-12.145l3.479-21.379c.064-.572.199-1.269.199-1.711 0-1.715-.985-2.095-2.17-2.095-1.508 0-3.016.634-4.135 1.206l-3.871 23.979h-12.142l3.478-21.379c.064-.571.195-1.269.195-1.711 0-1.715-.986-2.095-2.166-2.095-1.576 0-3.15.697-4.2 1.206l-3.874 23.979H104.14L109.719.7h10.439l.328 2.855c2.429-1.711 5.708-3.426 10.106-3.426 3.808-.001 6.3 1.585 7.55 3.742zm43.852 9.96c0-2.792-.723-4.695-2.887-4.695-4.791 0-5.776 8.183-5.776 12.369 0 3.176.92 5.141 3.084 5.141 4.529 0 5.579-8.63 5.579-12.816zM160.992 21c0-10.784 5.906-20.874 19.495-20.874 10.239 0 13.982 5.838 13.982 13.896 0 10.658-5.842 21.696-19.759 21.696-10.305 0-13.718-6.535-13.718-14.719z"/></svg>